<?xml version="1.0" encoding="UTF-8"?>
<svg id="Layer_1" data-name="Layer 1" xmlns="http://www.w3.org/2000/svg" viewBox="0 0 80 80">
  <defs>
    <style>
      .cls-1 {
        fill: #ffffff;
        stroke-width: 0px;
      }
    </style>
  </defs>
  <g id="layer1">
    <path id="rect992" class="cls-1" d="m19.77,15h0c2.3,0,4.17,1.87,4.17,4.17v41.67c0,2.3-1.87,4.17-4.17,4.17h0c-2.3,0-4.17-1.87-4.17-4.17V19.17c0-2.3,1.87-4.17,4.17-4.17Z"/>
    <path id="rect994" class="cls-1" d="m32.27,15h0c2.3,0,4.17,1.87,4.17,4.17v41.67c0,2.3-1.87,4.17-4.17,4.17h0c-2.3,0-4.17-1.87-4.17-4.17V19.17c0-2.3,1.87-4.17,4.17-4.17Z"/>
    <path id="rect996" class="cls-1" d="m44.55,16.51h0c2.16-.79,4.55.33,5.34,2.49l14.25,39.15c.79,2.16-.33,4.55-2.49,5.34h0c-2.16.79-4.55-.33-5.34-2.49l-14.25-39.15c-.79-2.16.33-4.55,2.49-5.34Z"/>
  </g>
</svg>